<svg width="210" height="210" viewBox="0 0 210 210" fill="none" xmlns="http://www.w3.org/2000/svg">
<path d="M192.095 34.0156L187.53 27.5586C180.665 32.4199 173.021 36.1308 164.968 38.5429L167.269 46.1131L173.243 40.9178C164.671 31.0839 152.574 26 140.476 26C130.419 26 120.214 29.5254 112.013 36.6503C102.513 44.8885 97.0955 56.8376 97.0955 69.3805V69.9742L105 69.8629H97.0955V77.7671H105L104.777 69.8629L102.81 69.9C77.9472 69.9 54.5686 57.8024 40.2445 37.3925C38.6117 35.0546 35.8285 33.7929 33.0082 34.0527C30.1508 34.3124 27.7016 36.0937 26.5512 38.7284C26.3286 39.3221 18.9068 55.8728 18.8697 77.73C18.8697 90.0131 21.2817 104.077 29.1118 117.437C36.9046 130.796 50.0412 143.19 70.1915 152.097L73.4199 144.86L68.9669 138.292C54.9025 147.792 38.4261 152.839 21.5786 152.839C20.4653 152.839 19.3521 152.802 18.2388 152.764C14.6021 152.616 11.2994 155.028 10.2975 158.553C9.29552 162.079 10.8912 165.827 14.0826 167.608C33.8988 178.629 54.9768 183.899 75.3496 183.899C103.998 183.899 131.31 173.36 151.423 153.655C171.536 133.95 184.228 105.079 184.19 69.6402V69.6031C184.19 66.8942 183.931 64.2223 183.411 61.5876L175.618 63.0719L181.185 68.7125C190.313 59.695 196.733 48.3396 199.776 35.9081C200.556 32.7167 199.257 29.3398 196.548 27.4844C193.839 25.6289 190.239 25.666 187.53 27.5586L192.095 34.0156L184.413 32.1601C182.075 41.7713 177.103 50.5291 170.089 57.4685C168.196 59.3239 167.38 61.9958 167.862 64.5934C168.196 66.2633 168.345 68.0074 168.345 69.7144V69.6773C168.308 101.406 157.286 125.712 140.328 142.411C123.332 159.073 100.176 168.128 75.3496 168.128C57.7228 168.128 39.3167 163.563 21.7642 153.804L17.9048 160.706L17.6079 168.61C18.9439 168.647 20.2798 168.684 21.5786 168.684C41.5804 168.684 61.174 162.673 77.7617 151.429C80.1367 149.796 81.4726 147.05 81.2128 144.192C80.9531 141.335 79.1718 138.849 76.5371 137.661C58.9474 129.794 48.8167 119.849 42.7308 109.495C36.682 99.1048 34.6781 88.0092 34.641 77.7671C34.641 68.6754 36.2367 60.4001 37.8695 54.4626C38.6859 51.4939 39.5023 49.1189 40.0589 47.4861C40.3558 46.6697 40.5784 46.076 40.764 45.6678L40.9495 45.2596L40.9866 45.1854L39.8734 44.703L40.9866 45.1854L39.8734 44.703L40.9866 45.1854L33.7504 41.9198L27.2563 46.4842C44.5862 71.1246 72.7891 85.7456 102.81 85.7456C103.59 85.7456 104.406 85.7456 105.185 85.7084C109.49 85.5971 112.904 82.1089 112.904 77.8042V69.9V69.7887V69.4176C112.904 61.4391 116.355 53.8689 122.367 48.6365C127.636 44.0721 134.019 41.8827 140.439 41.8456C148.158 41.8456 155.765 45.0369 161.257 51.3084C163.298 53.6462 166.527 54.574 169.532 53.6833C179.218 50.7888 188.384 46.3358 196.659 40.4725L192.095 34.0156L184.413 32.1601L192.095 34.0156Z" fill="black"/>
</svg>
