<svg width="210" height="210" viewBox="0 0 210 210" fill="none" xmlns="http://www.w3.org/2000/svg">
<path d="M194.712 136.255C198.133 126.462 200 115.946 200 105.001C200 94.0555 198.133 83.5395 194.712 73.747C194.629 73.4529 194.53 73.166 194.41 72.89C181.215 36.2614 146.119 10 105 10C63.8811 10 28.7841 36.2614 15.5898 72.89C15.47 73.1669 15.3701 73.4529 15.2875 73.747C11.8666 83.5395 10 94.0555 10 105.001C10 115.946 11.8666 126.462 15.2875 136.255C15.371 136.549 15.47 136.836 15.5898 137.112C28.785 173.741 63.8811 200.002 105 200.002C146.119 200.002 181.215 173.74 194.41 137.112C194.53 136.836 194.629 136.55 194.712 136.255ZM105 186.384C101.382 186.384 95.5489 179.837 90.6736 165.209C88.3204 158.15 86.4365 150.036 85.0638 141.208H124.936C123.563 150.036 121.68 158.149 119.327 165.209C114.451 179.837 108.618 186.384 105 186.384ZM83.4114 127.59C82.7569 120.329 82.411 112.753 82.411 105.001C82.411 97.2485 82.7569 89.6731 83.4114 82.4119H126.588C127.242 89.6731 127.588 97.2485 127.588 105.001C127.588 112.753 127.242 120.329 126.588 127.59H83.4114ZM23.6173 105.002C23.6173 97.1668 24.7331 89.5878 26.8095 82.4128H69.7523C69.1159 89.8238 68.7927 97.4192 68.7927 105.002C68.7927 112.584 69.115 120.18 69.7523 127.591H26.8095C24.7331 120.415 23.6173 112.837 23.6173 105.002ZM105 23.6182C108.618 23.6182 114.452 30.1659 119.327 44.7937C121.68 51.8525 123.564 59.9672 124.936 68.7936H85.0629C86.4356 59.9663 88.3195 51.8525 90.6727 44.7937C95.5489 30.1659 101.382 23.6182 105 23.6182ZM140.247 82.4128H183.19C185.266 89.5878 186.382 97.1668 186.382 105.002C186.382 112.837 185.266 120.416 183.19 127.591H140.247C140.883 120.18 141.206 112.584 141.206 105.002C141.206 97.4192 140.883 89.8238 140.247 82.4128ZM177.869 68.7945H138.684C136.262 52.0922 132.107 37.1076 126.277 26.4472C148.879 32.5745 167.604 48.2183 177.869 68.7945ZM83.7219 26.4463C77.8924 37.1067 73.737 52.0913 71.3148 68.7945H32.1306C42.396 48.2183 61.1202 32.5745 83.7219 26.4463ZM32.1306 141.208H71.3148C73.737 157.911 77.8924 172.895 83.7219 183.556C61.1202 177.428 42.396 161.785 32.1306 141.208ZM126.277 183.556C132.107 172.896 136.262 157.911 138.684 141.208H177.869C167.604 161.785 148.879 177.428 126.277 183.556Z" fill="black"/>
</svg>
